<svg width="81" height="81" viewBox="0 0 81 81" fill="none" xmlns="http://www.w3.org/2000/svg">
<path d="M14.15 16.54H0.659966C0.345164 16.54 0.0899658 16.7952 0.0899658 17.11V30.6C0.0899658 30.9148 0.345164 31.17 0.659966 31.17H14.15C14.4648 31.17 14.72 30.9148 14.72 30.6V17.11C14.72 16.7952 14.4648 16.54 14.15 16.54Z" fill="#00A086"/>
<path d="M14.15 33.08H0.659966C0.345164 33.08 0.0899658 33.3352 0.0899658 33.65V47.14C0.0899658 47.4548 0.345164 47.71 0.659966 47.71H14.15C14.4648 47.71 14.72 47.4548 14.72 47.14V33.65C14.72 33.3352 14.4648 33.08 14.15 33.08Z" fill="#00A086"/>
<path d="M0.669976 49.63H14.16C14.48 49.63 14.73 49.89 14.73 50.2V63.69C14.73 64.01 14.47 64.26 14.16 64.26H0.669976C0.349976 64.26 0.0999756 64 0.0999756 63.69V50.2C0.0999756 49.88 0.359976 49.63 0.669976 49.63Z" fill="#00A086"/>
<path d="M30.61 49.63H17.11C16.7952 49.63 16.54 49.8852 16.54 50.2V63.7C16.54 64.0148 16.7952 64.27 17.11 64.27H30.61C30.9248 64.27 31.18 64.0148 31.18 63.7V50.2C31.18 49.8852 30.9248 49.63 30.61 49.63Z" fill="#00A086"/>
<path d="M33.66 49.63H47.15C47.47 49.63 47.72 49.89 47.72 50.2V63.69C47.72 64.01 47.46 64.26 47.15 64.26H33.66C33.34 64.26 33.09 64 33.09 63.69V50.2C33.09 49.88 33.35 49.63 33.66 49.63Z" fill="#00A086"/>
<path d="M47.15 33.08H33.66C33.3452 33.08 33.09 33.3352 33.09 33.65V47.14C33.09 47.4548 33.3452 47.71 33.66 47.71H47.15C47.4648 47.71 47.72 47.4548 47.72 47.14V33.65C47.72 33.3352 47.4648 33.08 47.15 33.08Z" fill="#00A086"/>
<path d="M14.06 66.17H0.57C0.255198 66.17 0 66.4252 0 66.74V80.23C0 80.5448 0.255198 80.8 0.57 80.8H14.06C14.3748 80.8 14.63 80.5448 14.63 80.23V66.74C14.63 66.4252 14.3748 66.17 14.06 66.17Z" fill="#00A086"/>
<path d="M17.1201 66.17H30.6101C30.9301 66.17 31.18 66.43 31.18 66.74V80.23C31.18 80.55 30.9201 80.8 30.6101 80.8H17.1201C16.8001 80.8 16.55 80.54 16.55 80.23V66.74C16.55 66.42 16.8101 66.17 17.1201 66.17Z" fill="#00A086"/>
<path d="M80.14 16.54H66.65C66.3352 16.54 66.08 16.7952 66.08 17.11V30.6C66.08 30.9148 66.3352 31.17 66.65 31.17H80.14C80.4548 31.17 80.71 30.9148 80.71 30.6V17.11C80.71 16.7952 80.4548 16.54 80.14 16.54Z" fill="#00A086"/>
<path d="M14.15 0H0.659966C0.345164 0 0.0899658 0.255198 0.0899658 0.57V14.06C0.0899658 14.3748 0.345164 14.63 0.659966 14.63H14.15C14.4648 14.63 14.72 14.3748 14.72 14.06V0.57C14.72 0.255198 14.4648 0 14.15 0Z" fill="#00A086"/>
<path d="M80.14 0H66.65C66.3352 0 66.08 0.255198 66.08 0.57V14.06C66.08 14.3748 66.3352 14.63 66.65 14.63H80.14C80.4548 14.63 80.71 14.3748 80.71 14.06V0.57C80.71 0.255198 80.4548 0 80.14 0Z" fill="#00A086"/>
<path d="M80.14 33.08H66.65C66.3352 33.08 66.08 33.3352 66.08 33.65V47.14C66.08 47.4548 66.3352 47.71 66.65 47.71H80.14C80.4548 47.71 80.71 47.4548 80.71 47.14V33.65C80.71 33.3352 80.4548 33.08 80.14 33.08Z" fill="#00A086"/>
<path d="M66.65 49.63H80.14C80.46 49.63 80.71 49.89 80.71 50.2V63.69C80.71 64.01 80.45 64.26 80.14 64.26H66.65C66.33 64.26 66.08 64 66.08 63.69V50.2C66.08 49.88 66.34 49.63 66.65 49.63Z" fill="#00A086"/>
<path d="M50.2 49.63H63.69C64.01 49.63 64.26 49.89 64.26 50.2V63.69C64.26 64.01 64 64.26 63.69 64.26H50.2C49.88 64.26 49.63 64 49.63 63.69V50.2C49.63 49.88 49.89 49.63 50.2 49.63Z" fill="#00A086"/>
<path d="M80.23 66.17H66.74C66.4252 66.17 66.17 66.4252 66.17 66.74V80.23C66.17 80.5448 66.4252 80.8 66.74 80.8H80.23C80.5449 80.8 80.8 80.5448 80.8 80.23V66.74C80.8 66.4252 80.5449 66.17 80.23 66.17Z" fill="#00A086"/>
<path d="M63.69 66.17H50.2C49.8852 66.17 49.63 66.4252 49.63 66.74V80.23C49.63 80.5448 49.8852 80.8 50.2 80.8H63.69C64.0048 80.8 64.26 80.5448 64.26 80.23V66.74C64.26 66.4252 64.0048 66.17 63.69 66.17Z" fill="#00A086"/>
</svg>
