<?xml version="1.0" encoding="UTF-8"?>
<svg id="Livello_1" data-name="Livello 1" xmlns="http://www.w3.org/2000/svg" viewBox="0 0 353.63 86.97">
  <defs>
    <style>
      .cls-1 {
        fill: #fff;
      }

      .cls-2 {
        fill: #00c2a0;
      }
    </style>
  </defs>
  <g>
    <rect class="cls-2" x=".09" y="16.54" width="14.63" height="14.63" rx=".57" ry=".57"/>
    <rect class="cls-2" x=".09" y="33.08" width="14.63" height="14.63" rx=".57" ry=".57"/>
    <path class="cls-2" d="M.67,49.63h13.49c.32,0,.57.26.57.57v13.49c0,.32-.26.57-.57.57H.67c-.32,0-.57-.26-.57-.57v-13.49c0-.32.26-.57.57-.57Z"/>
    <rect class="cls-2" x="16.54" y="49.63" width="14.64" height="14.64" rx=".57" ry=".57"/>
    <path class="cls-2" d="M33.66,49.63h13.49c.32,0,.57.26.57.57v13.49c0,.32-.26.57-.57.57h-13.49c-.32,0-.57-.26-.57-.57v-13.49c0-.32.26-.57.57-.57Z"/>
    <rect class="cls-2" x="33.09" y="33.08" width="14.63" height="14.63" rx=".57" ry=".57"/>
    <rect class="cls-2" y="66.17" width="14.63" height="14.63" rx=".57" ry=".57"/>
    <path class="cls-2" d="M17.12,66.17h13.49c.32,0,.57.26.57.57v13.49c0,.32-.26.57-.57.57h-13.49c-.32,0-.57-.26-.57-.57v-13.49c0-.32.26-.57.57-.57Z"/>
    <rect class="cls-2" x="66.08" y="16.54" width="14.63" height="14.63" rx=".57" ry=".57"/>
    <rect class="cls-2" x=".09" width="14.63" height="14.63" rx=".57" ry=".57"/>
    <rect class="cls-2" x="66.08" width="14.63" height="14.63" rx=".57" ry=".57"/>
    <rect class="cls-2" x="66.08" y="33.08" width="14.63" height="14.63" rx=".57" ry=".57"/>
    <path class="cls-2" d="M66.65,49.63h13.49c.32,0,.57.26.57.57v13.49c0,.32-.26.57-.57.57h-13.49c-.32,0-.57-.26-.57-.57v-13.49c0-.32.26-.57.57-.57Z"/>
    <path class="cls-2" d="M50.2,49.63h13.49c.32,0,.57.26.57.57v13.49c0,.32-.26.57-.57.57h-13.49c-.32,0-.57-.26-.57-.57v-13.49c0-.32.26-.57.57-.57Z"/>
    <rect class="cls-2" x="66.17" y="66.17" width="14.63" height="14.63" rx=".57" ry=".57"/>
    <rect class="cls-2" x="49.63" y="66.17" width="14.63" height="14.63" rx=".57" ry=".57"/>
  </g>
  <g>
    <path class="cls-1" d="M129.62,70.26l-16.08-59.72h11.1l10.27,43.89h.53l10.96-43.89h10.1l10.99,43.92h.5l10.27-43.92h11.1l-16.08,59.72h-10.18l-11.41-41.91h-.45l-11.44,41.91h-10.18Z"/>
    <path class="cls-1" d="M210.31,71.14c-4.17,0-7.79-.96-10.85-2.89-3.06-1.92-5.43-4.62-7.11-8.08-1.68-3.46-2.52-7.5-2.52-12.13s.84-8.68,2.52-12.16c1.68-3.48,4.05-6.18,7.11-8.11s6.68-2.89,10.85-2.89,7.79.96,10.85,2.89,5.43,4.63,7.11,8.11c1.68,3.48,2.52,7.53,2.52,12.16s-.84,8.67-2.52,12.13c-1.68,3.46-4.05,6.15-7.11,8.08-3.06,1.92-6.68,2.89-10.85,2.89ZM210.37,62.68c2.26,0,4.16-.66,5.68-1.97,1.52-1.31,2.66-3.08,3.41-5.29.75-2.22,1.13-4.68,1.13-7.41s-.38-5.22-1.13-7.45c-.75-2.23-1.89-4-3.41-5.32-1.52-1.32-3.41-1.98-5.68-1.98s-4.24.66-5.77,1.98c-1.53,1.32-2.67,3.1-3.42,5.32-.75,2.23-1.13,4.71-1.13,7.45s.38,5.19,1.13,7.41c.75,2.22,1.89,3.98,3.42,5.29,1.53,1.31,3.45,1.97,5.77,1.97Z"/>
    <path class="cls-1" d="M239.3,70.26V25.47h9.77v7.46h.45c.78-2.58,2.12-4.58,4.02-5.99s4.08-2.11,6.52-2.11c.56,0,1.18.02,1.88.07.7.05,1.27.12,1.74.22v9.71c-.43-.16-1.1-.3-2.02-.42-.92-.13-1.8-.19-2.66-.19-1.84,0-3.48.41-4.94,1.24-1.46.83-2.6,1.97-3.44,3.43-.83,1.46-1.25,3.14-1.25,5.04v26.33h-10.07Z"/>
    <path class="cls-1" d="M270.38,70.26V10.54h10.07v59.72h-10.07ZM279.57,56.21l-.03-12.74h1.61l15.36-17.99h11.77l-18.89,22.05h-2.09l-7.73,8.69ZM297.21,70.26l-13.91-20.38,6.79-7.44,19.17,27.82h-12.05Z"/>
    <path class="cls-1" d="M321.66,86.97c-1.37,0-2.64-.11-3.8-.34s-2.08-.49-2.77-.8l2.34-8.19c2.19.66,4.03.77,5.52.33s2.72-1.89,3.69-4.36l.86-2.42-15.5-45.73h10.68l9.85,33.83h.45l9.88-33.83,10.77.06-17.17,50.16c-.8,2.33-1.86,4.35-3.17,6.04-1.32,1.69-2.93,2.99-4.83,3.89s-4.17,1.36-6.8,1.36Z"/>
  </g>
</svg>