<?xml version="1.0" encoding="utf-8"?>
<svg xmlns="http://www.w3.org/2000/svg" width="1200" height="630" viewBox="0 0 1200 630">
  <defs>
    <linearGradient id="bg" x1="0%" y1="0%" x2="100%" y2="100%">
      <stop offset="0%" stop-color="#0f172a"/>
      <stop offset="100%" stop-color="#1e293b"/>
    </linearGradient>
    <linearGradient id="accent" x1="0%" y1="0%" x2="100%" y2="0%">
      <stop offset="0%" stop-color="#3b82f6"/>
      <stop offset="100%" stop-color="#8b5cf6"/>
    </linearGradient>
  </defs>

  <!-- Background -->
  <rect width="1200" height="630" fill="url(#bg)"/>

  <!-- Accent line top -->
  <rect x="0" y="0" width="1200" height="5" fill="url(#accent)"/>

  <!-- Logo (dark variant) scaled to 220×220, centered vertically at x=80 -->
  <g transform="translate(80, 205) scale(0.21484375)">
    <!-- Outer frame -->
    <path fill="white" d="M262.63 287.708C299.825 286.916 339.36 287.58 376.706 287.592L590.598 287.64L706.156 287.602L741.691 287.555C760.528 287.539 774.895 285.912 790.086 299.268C799.245 307.215 804.805 318.526 805.504 330.632C805.969 338.134 805.595 348.809 805.581 356.499L805.654 400.208L805.666 544.517L805.626 646.408L805.625 678.001C805.596 694.937 806.16 707.63 793.765 721.188C784.082 731.78 773.926 735.519 759.815 736.362L417.886 736.349L312.243 736.343L280.41 736.362C263.268 736.37 248.611 737.423 234.576 725.484C225.14 717.358 219.347 705.795 218.487 693.372C217.95 686.462 218.339 676.528 218.329 669.291L218.244 623.844L218.277 482.629L218.265 377.993L218.235 345.909C218.234 340.699 217.992 332.641 218.559 327.654C219.554 318.796 223.228 310.451 229.09 303.736C238.13 293.225 249.039 288.652 262.63 287.708Z"/>
    <!-- Inner screen (matches background) -->
    <path fill="#0f172a" d="M235.525 373.516C259.749 373.737 283.974 373.797 308.199 373.698L435.782 373.713L788.199 373.536L788.212 592.787L788.206 658.114C788.24 669.963 788.623 682.945 787.776 694.752C787.376 700.334 783.933 705.51 780.399 709.732C773.295 717.062 766.358 718.922 756.507 718.965C720.389 719.123 684.178 719.056 648.066 719.057L437.523 719.06L319.295 719.071L283.58 719.096C276.28 719.115 268.831 719.272 261.524 718.783C249.794 717.999 237.43 706.96 236.209 695.169C235.044 683.92 235.533 671.184 235.537 659.761L235.556 595.793L235.525 373.516Z"/>
    <!-- Checkmark -->
    <path fill="white" d="M569.245 432.591C572.945 432.505 575.637 433.318 578.359 436.053C587.377 445.115 597.253 454.068 605.762 463.56C607.162 465.121 607.623 468.572 607.725 470.56C607.851 473.019 605.063 476.322 603.334 478.219C595.831 486.449 588.071 494.553 580.51 502.748L528.851 558.671L466.003 627.169C456.469 637.502 446.947 647.886 437.271 658.103C434.492 661.036 431.78 663.332 427.332 663.229C425.364 663.183 421.306 660.644 419.851 659.321C413.899 653.91 407.954 647.743 402.265 642.046L367.313 607.068L343.562 583.56C341.504 581.524 338.112 577.744 335.893 575.95C318.364 561.778 339.739 551.278 348.919 540.315C354.116 534.108 363.57 523.063 372.45 530.48C379.006 535.956 385.326 542.545 391.591 548.788L426.903 583.922C432.302 577.351 441.988 567.967 448.186 561.338C461.059 547.429 473.862 533.455 486.595 519.418L538.797 461.993C546.864 453.221 555.004 444.269 563.26 435.673C564.979 433.884 566.898 433.357 569.245 432.591Z"/>
    <!-- Short horizontal line (left panel) -->
    <path fill="white" d="M278.049 412.538C309.989 411.387 343.228 413.117 375.314 412.367C389.185 412.043 405.225 411.8 418.879 412.544C426.149 417.348 426.188 424.677 418.16 428.615C410.312 429.027 399.772 428.705 391.751 428.698L341.05 428.671L305.319 428.739C297.285 428.776 284.965 429.479 277.503 428.017C270.344 426.616 270.16 416.354 278.049 412.538Z"/>
    <!-- Right panel lines -->
    <path fill="white" d="M637.21 495.607C673.117 495.846 709.025 495.842 744.931 495.596C745.041 502.294 744.983 509.163 745.005 515.876C710.254 515.629 671.802 514.965 637.222 515.813C637.063 509.205 637.186 502.245 637.21 495.607Z"/>
    <path fill="white" d="M637.308 639.054L744.967 639.039L745.047 658.995L637.341 659.008L637.308 639.054Z"/>
    <path fill="white" d="M637.285 448.005L744.915 447.935C745.022 454.635 744.975 461.469 744.997 468.18C710.55 467.413 671.789 467.706 637.238 468.112L637.285 448.005Z"/>
    <path fill="white" d="M637.395 543.704C672.293 542.851 709.843 543.574 744.972 543.538L745.012 563.616L637.304 563.539C637.258 556.927 637.288 550.315 637.395 543.704Z"/>
    <path fill="white" d="M645.125 591.249L744.953 591.303L745.028 611.252L738.792 611.187C705.223 611.134 670.745 610.674 637.247 611.183L637.162 591.31L645.125 591.249Z"/>
    <!-- Small left line -->
    <path fill="white" d="M277.517 454.585C284.92 454.034 293.063 454.36 300.596 454.303C310.956 454.225 321.706 454.068 332.056 454.527C334.098 454.618 336.729 456.318 337.713 458.093C340.761 463.593 338.344 467.537 333.636 470.427C320.216 471.894 303.124 469.799 289.439 470.766C284.886 471.088 275.764 471.455 273.384 466.878C270.553 461.431 272.513 457.568 277.517 454.585Z"/>
    <!-- Window dots: red, yellow, green -->
    <path fill="#EB2322" d="M279.401 317.535C287.647 316.584 295.106 322.487 296.074 330.731C297.042 338.974 291.154 346.445 282.913 347.43C274.648 348.418 267.151 342.509 266.18 334.242C265.209 325.975 271.133 318.49 279.401 317.535Z"/>
    <path fill="#FCC710" d="M334.401 317.618C342.436 316.591 349.815 322.18 351.002 330.192C352.19 338.205 346.748 345.694 338.761 347.04C333.451 347.935 328.072 345.89 324.698 341.694C321.323 337.498 320.48 331.806 322.493 326.812C324.506 321.818 329.06 318.302 334.401 317.618Z"/>
    <path fill="#37D040" d="M389.067 317.745C394.383 317.025 399.677 319.216 402.93 323.483C406.182 327.75 406.892 333.435 404.789 338.371C402.685 343.306 398.093 346.732 392.762 347.341C384.639 348.27 377.283 342.485 376.27 334.372C375.256 326.259 380.964 318.842 389.067 317.745Z"/>
  </g>

  <!-- Title -->
  <text x="355" y="285" font-family="system-ui, -apple-system, BlinkMacSystemFont, 'Segoe UI', sans-serif" font-size="100" font-weight="700" fill="white">Worky</text>

  <!-- Tagline -->
  <text x="355" y="360" font-family="system-ui, -apple-system, BlinkMacSystemFont, 'Segoe UI', sans-serif" font-size="34" fill="#94a3b8">Build self-contained interactive</text>
  <text x="355" y="408" font-family="system-ui, -apple-system, BlinkMacSystemFont, 'Segoe UI', sans-serif" font-size="34" fill="#94a3b8">workshops as a single Go binary.</text>

  <!-- URL -->
  <text x="355" y="565" font-family="system-ui, -apple-system, BlinkMacSystemFont, 'Segoe UI', sans-serif" font-size="26" fill="#475569">worky.davideimola.dev</text>

  <!-- CTA -->
  <rect x="830" y="520" width="290" height="62" rx="10" fill="url(#accent)"/>
  <text x="975" y="559" font-family="system-ui, -apple-system, BlinkMacSystemFont, 'Segoe UI', sans-serif" font-size="28" font-weight="600" fill="white" text-anchor="middle">Get Started →</text>
</svg>
